<?xml version="1.0" standalone="no"?>
<!DOCTYPE svg PUBLIC "-//W3C//DTD SVG 20010904//EN"
 "http://www.w3.org/TR/2001/REC-SVG-20010904/DTD/svg10.dtd">
<svg version="1.0" xmlns="http://www.w3.org/2000/svg"
 width="1024.000000pt" height="1024.000000pt" viewBox="0 0 1024.000000 1024.000000"
 preserveAspectRatio="xMidYMid meet">

<g transform="translate(0.000000,1024.000000) scale(0.100000,-0.100000)"
fill="#000000" stroke="none">
<path d="M6781 8371 c-38 -36 -78 -119 -92 -194 -14 -80 3 -161 58 -271 49
-99 49 -102 0 -33 -42 59 -96 102 -174 139 -115 55 -168 22 -145 -90 40 -190
262 -313 492 -273 177 31 320 167 320 304 0 69 -12 87 -59 87 -82 0 -202 -81
-288 -195 -13 -17 -1 13 26 66 56 109 70 179 52 266 -23 116 -91 223 -141 223
-10 0 -32 -13 -49 -29z"/>
<path d="M4845 8117 c-67 -23 -98 -43 -152 -99 -99 -106 -142 -231 -150 -438
-8 -222 32 -389 128 -534 63 -95 101 -135 184 -200 l70 -53 76 58 c178 136
267 293 305 540 48 314 -53 611 -241 706 -60 31 -160 40 -220 20z"/>
<path d="M2490 8110 c-269 -28 -433 -94 -507 -204 -67 -98 -71 -225 -12 -336
38 -72 129 -169 177 -191 18 -8 32 -18 32 -24 0 -5 -9 -68 -20 -139 -11 -71
-20 -130 -20 -132 0 -2 -28 -18 -62 -35 -233 -116 -424 -346 -505 -606 l-28
-88 -3 -835 c-2 -602 0 -846 8 -874 6 -21 32 -60 57 -87 134 -143 410 -209
884 -209 l126 0 214 101 c118 55 336 157 484 226 149 68 272 126 274 129 2 2
3 375 2 829 -3 936 1 885 -86 1055 -78 150 -205 279 -360 365 -36 20 -65 40
-65 43 0 4 -9 59 -20 122 -11 63 -20 122 -20 130 0 8 23 29 51 45 76 45 163
142 189 211 26 70 28 165 5 234 -19 58 -87 138 -148 173 -124 73 -433 119
-647 97z m324 -262 c66 -13 121 -44 135 -75 32 -71 -2 -119 -132 -183 -250
-123 -554 -77 -582 88 -16 96 71 159 251 182 80 10 254 4 328 -12z m-254 -734
c71 -15 102 -15 280 -1 23 2 25 -1 25 -43 l0 -44 -60 -19 c-120 -37 -311 -33
-416 10 -43 17 -44 19 -28 108 l10 61 57 -28 c31 -16 91 -35 132 -44z m-205
-305 c62 -20 92 -23 260 -23 180 -1 194 1 264 25 l75 27 33 -22 c18 -11 33
-26 33 -32 0 -17 -66 -74 -151 -131 -97 -66 -143 -88 -247 -122 l-87 -29 50
-8 c28 -5 78 -8 113 -7 64 1 196 35 207 53 3 6 11 10 17 10 13 0 -43 -100 -93
-166 -50 -66 -151 -165 -215 -210 -65 -48 -213 -120 -287 -141 -73 -20 -60
-30 50 -39 127 -11 296 33 430 112 24 14 43 22 43 19 0 -16 -123 -207 -177
-275 -105 -131 -255 -241 -391 -286 -35 -12 -59 -25 -53 -28 5 -4 52 -9 103
-12 111 -7 210 11 306 56 36 17 67 28 70 26 10 -11 -93 -148 -157 -208 -84
-80 -149 -125 -220 -154 l-54 -22 48 -7 c123 -19 275 15 422 95 186 100 324
238 453 451 27 46 50 79 50 73 0 -17 -76 -196 -122 -288 -86 -171 -244 -368
-380 -473 -107 -82 -322 -181 -397 -184 -56 -2 43 -32 107 -32 34 -1 62 -2 62
-4 0 -10 -153 -77 -227 -100 -78 -23 -105 -27 -238 -27 -141 -1 -153 1 -200
24 l-50 25 1 730 c2 812 1 801 69 937 49 98 89 152 165 229 76 76 208 170 230
164 8 -2 47 -14 85 -26z"/>
<path d="M4337 7951 c-331 -165 -548 -526 -547 -911 l0 -65 35 70 c41 85 126
190 197 244 67 50 188 108 251 120 26 5 49 10 51 12 2 2 -1 33 -6 69 -19 124
23 347 86 458 14 23 22 42 18 42 -4 0 -42 -18 -85 -39z"/>
<path d="M5466 7913 c53 -109 69 -189 69 -348 l0 -140 71 -21 c127 -37 275
-136 353 -234 22 -28 55 -81 73 -118 l33 -67 3 87 c9 282 -148 595 -391 779
-71 54 -208 129 -234 129 -5 0 5 -30 23 -67z"/>
<path d="M6430 7633 c-20 -25 -22 -37 -18 -118 5 -110 37 -183 112 -258 63
-63 130 -94 236 -109 200 -28 376 56 451 216 53 113 60 230 17 276 -42 45
-158 10 -257 -77 -62 -54 -98 -114 -120 -198 l-17 -63 -17 64 c-31 118 -113
215 -227 268 -76 35 -132 35 -160 -1z"/>
<path d="M5484 7212 c-19 -61 -62 -149 -93 -195 l-38 -53 86 4 c163 7 319 -47
436 -151 l57 -51 -7 35 c-13 64 -73 174 -129 235 -66 73 -140 124 -237 164
-63 26 -70 28 -75 12z"/>
<path d="M4261 7185 c-157 -74 -264 -194 -321 -360 -21 -60 -18 -68 11 -31 34
43 167 125 242 148 57 18 96 23 187 23 l116 0 -38 62 c-21 35 -50 92 -65 128
-17 42 -32 65 -42 65 -9 -1 -49 -16 -90 -35z"/>
<path d="M6430 7133 c-20 -25 -22 -37 -18 -113 5 -108 35 -175 111 -253 64
-66 131 -101 229 -118 180 -32 381 61 457 212 54 107 64 217 26 276 -15 23
-22 25 -68 21 -70 -6 -138 -41 -207 -105 -61 -56 -93 -112 -112 -194 l-12 -50
-13 50 c-30 118 -105 210 -216 266 -90 45 -146 48 -177 8z"/>
<path d="M4253 6785 c-79 -17 -190 -75 -253 -132 -66 -59 -126 -154 -150 -233
-18 -63 -32 -190 -20 -190 3 0 23 23 45 50 79 100 172 164 295 201 95 30 270
32 370 6 93 -25 199 -80 261 -134 l52 -48 -5 87 c-4 63 -13 101 -32 143 -31
68 -128 172 -194 208 -101 55 -237 71 -369 42z"/>
<path d="M5361 6789 c-116 -23 -250 -118 -304 -217 -31 -56 -57 -158 -57 -221
l0 -43 53 49 c107 97 247 146 422 147 129 1 191 -12 300 -64 87 -42 156 -97
216 -173 l39 -49 0 54 c0 234 -194 462 -437 513 -75 16 -164 18 -232 4z"/>
<path d="M6453 6660 c-33 -14 -47 -49 -46 -120 1 -83 29 -163 86 -243 74 -103
73 -103 154 -74 37 13 92 30 122 37 l54 13 -6 59 c-11 126 -97 242 -220 298
-74 34 -114 42 -144 30z"/>
<path d="M7137 6659 c-48 -11 -112 -44 -160 -81 -70 -56 -117 -146 -132 -258
l-7 -45 99 3 c54 2 124 -1 156 -6 56 -9 58 -8 78 19 95 134 119 341 42 370
-27 10 -24 10 -76 -2z"/>
<path d="M8535 6315 c-135 -30 -279 -98 -402 -192 -72 -55 -226 -208 -296
-295 -42 -51 -77 -68 -143 -68 -38 0 -50 7 -121 68 -190 164 -373 235 -603
236 -82 0 -132 -5 -175 -18 -62 -19 -463 -200 -910 -411 -55 -26 -215 -100
-355 -165 -140 -65 -299 -138 -353 -164 -55 -25 -100 -46 -102 -46 -2 0 -156
-71 -342 -159 -186 -87 -408 -190 -493 -228 -142 -65 -750 -348 -1015 -473
-60 -29 -227 -106 -370 -172 -413 -190 -445 -209 -550 -313 -136 -136 -193
-247 -227 -440 -18 -98 -20 -238 -6 -306 2 -11 -33 -15 -177 -20 -204 -7 -365
-35 -545 -95 -395 -131 -590 -340 -590 -632 0 -99 26 -187 78 -268 151 -233
439 -296 790 -172 198 69 340 162 534 347 141 134 179 157 217 129 10 -7 54
-44 97 -81 129 -112 245 -171 404 -203 108 -21 256 -15 354 16 120 38 92 24
1371 650 363 178 728 355 810 395 83 40 249 121 370 180 373 182 598 291 1270
615 94 45 231 110 306 146 248 116 332 173 424 285 97 117 152 265 174 464 13
110 28 148 74 176 44 26 84 36 207 49 313 34 550 114 719 244 216 166 290 433
183 655 -37 75 -138 181 -210 219 -113 60 -258 78 -397 47z m266 -180 c116
-41 172 -140 118 -209 -27 -35 -365 -201 -629 -311 -118 -49 -367 -175 -385
-195 -17 -19 -18 -18 -50 48 -18 37 -47 87 -63 112 -27 39 -29 45 -14 48 103
19 121 30 261 166 195 188 374 303 529 341 77 18 180 18 233 0z m-1678 -266
c120 -41 277 -147 376 -254 59 -66 139 -194 175 -285 80 -197 90 -399 30 -579
-14 -42 -29 -79 -32 -83 -4 -4 -6 40 -4 97 5 121 -9 232 -44 354 -55 189 -107
286 -169 316 -45 21 -56 18 -192 -46 -59 -28 -157 -73 -218 -101 -60 -28 -180
-83 -265 -123 -85 -40 -283 -132 -440 -205 -394 -183 -1058 -492 -1605 -748
-477 -222 -551 -257 -945 -437 -331 -151 -365 -169 -385 -212 -20 -41 -14 -78
29 -217 14 -43 24 -77 22 -75 -2 2 -28 51 -57 109 -153 299 -345 487 -584 570
-48 17 -49 18 -25 28 29 11 442 200 570 260 186 87 1052 488 1160 537 63 29
347 160 630 292 1126 526 1761 819 1786 826 32 9 122 -2 187 -24z m-4335
-2180 c119 -41 273 -172 360 -307 120 -185 174 -424 139 -610 -19 -99 -47
-159 -104 -222 -41 -46 -123 -92 -188 -105 -27 -5 -28 -5 -10 7 46 30 128 123
150 171 37 80 48 149 42 272 -10 210 -99 402 -255 547 -189 177 -431 198 -592
52 l-43 -39 27 53 c91 180 274 250 474 181z m-92 -345 c168 -79 300 -347 264
-534 -21 -109 -96 -185 -201 -204 l-36 -6 48 49 c63 65 78 127 61 245 -14 94
-68 217 -126 283 -55 63 -146 104 -235 106 -39 1 -71 4 -71 5 0 7 46 43 75 59
69 37 137 37 221 -3z m-141 -229 c28 -29 74 -131 64 -139 -2 -1 -24 -8 -49
-15 -57 -16 -286 -108 -545 -218 -365 -156 -629 -264 -700 -288 -145 -48 -220
-42 -287 25 -32 32 -38 44 -38 81 0 25 8 60 18 79 55 103 308 234 592 305 120
31 250 51 415 66 139 12 210 33 345 104 90 47 141 47 185 0z"/>
<path d="M4208 6304 c-139 -33 -275 -139 -337 -263 -25 -49 -35 -85 -43 -158
-5 -52 -7 -97 -4 -101 4 -3 14 5 23 19 29 44 128 135 177 164 97 57 171 77
302 83 93 3 139 1 198 -12 100 -23 207 -77 269 -137 28 -27 53 -49 55 -49 2 0
1 28 -3 63 -18 175 -181 349 -365 391 -83 19 -195 19 -272 0z"/>
<path d="M5360 6304 c-135 -35 -257 -129 -314 -242 -22 -44 -53 -188 -43 -198
2 -2 25 17 52 42 60 55 170 110 262 129 88 19 261 19 341 0 66 -16 160 -59
229 -106 45 -32 54 -34 81 -20 9 5 25 12 34 15 16 5 16 8 2 48 -51 144 -217
290 -379 333 -73 19 -192 18 -265 -1z"/>
<path d="M4275 5853 c-244 -32 -445 -236 -445 -452 l0 -44 58 55 c78 75 154
122 249 155 70 24 92 27 208 27 114 0 140 -4 211 -27 87 -29 187 -87 247 -145
l37 -36 0 56 c0 72 -20 126 -74 202 -111 156 -296 235 -491 209z"/>
<path d="M5377 5844 c-105 -23 -174 -60 -248 -134 -69 -69 -106 -134 -115
-204 l-6 -43 132 64 c73 35 187 88 254 118 66 29 170 76 231 104 l110 50 -45
20 c-48 21 -153 41 -210 40 -19 0 -66 -7 -103 -15z"/>
<path d="M4178 5395 c-73 -18 -175 -67 -226 -108 -50 -39 -99 -104 -114 -149
-9 -29 -27 -218 -20 -218 5 0 278 122 520 234 140 64 268 122 285 129 l31 13
-36 27 c-72 55 -153 80 -273 83 -72 2 -129 -1 -167 -11z"/>
<path d="M8214 4881 c-23 -10 -45 -24 -49 -31 -4 -7 -14 -47 -21 -89 -42 -244
-167 -453 -357 -598 -58 -44 -553 -294 -987 -498 -244 -115 -988 -476 -1600
-775 -962 -471 -1676 -816 -1766 -854 -206 -85 -460 -106 -675 -55 -99 23
-261 99 -338 158 -30 22 -59 41 -64 41 -5 0 -28 -17 -51 -38 -22 -20 -54 -48
-71 -60 l-30 -23 25 -20 c92 -72 252 -137 414 -168 106 -21 125 -21 2366 -21
1560 0 2283 3 2336 11 452 63 792 333 914 728 49 155 50 188 50 1284 l0 1027
-27 0 c-16 0 -47 -9 -69 -19z m-856 -1700 c187 -41 321 -106 362 -173 26 -43
25 -60 -6 -97 -19 -23 -47 -37 -107 -57 -274 -86 -770 -63 -1007 47 -74 34
-103 59 -120 99 -32 77 88 157 293 196 111 21 464 12 585 -15z m-1078 -288 c0
-85 101 -189 254 -263 189 -92 401 -132 696 -134 250 -1 397 27 554 106 32 16
60 27 63 25 2 -3 -1 -23 -7 -46 -24 -89 -122 -160 -310 -221 -245 -81 -426
-104 -810 -104 -311 0 -428 12 -646 64 -238 56 -404 167 -404 269 0 99 120
192 345 267 98 32 209 61 248 63 12 1 17 -7 17 -26z"/>
<path d="M6655 3064 c-43 -43 19 -110 65 -69 26 24 25 50 -2 69 -28 20 -43 20
-63 0z"/>
<path d="M7115 3060 c-41 -45 -10 -120 50 -120 63 0 98 77 55 120 -26 26 -81
26 -105 0z"/>
<path d="M7492 3008 c-21 -21 -14 -57 14 -70 31 -14 57 -1 62 31 7 42 -46 69
-76 39z"/>
<path d="M6262 2624 c-48 -33 -17 -114 43 -114 33 0 68 43 60 72 -17 55 -59
73 -103 42z"/>
<path d="M5887 2612 c-37 -40 -4 -112 50 -112 26 0 73 41 73 63 0 8 -9 26 -21
41 -25 32 -77 36 -102 8z"/>
<path d="M6632 2448 c-7 -7 -12 -25 -12 -40 0 -50 76 -60 94 -12 16 41 -51 83
-82 52z"/>
<path d="M1544 4284 c3 -9 6 -231 6 -494 l0 -478 93 33 c50 18 118 38 149 45
55 13 58 15 63 49 37 251 124 440 277 605 43 46 78 87 78 90 0 3 -21 6 -47 6
-157 0 -451 72 -559 135 -49 29 -69 32 -60 9z"/>
</g>
</svg>
